<svg width="1190" height="114" viewBox="0 0 1190 114" fill="none" xmlns="http://www.w3.org/2000/svg">
<path opacity="0.1" d="M61.6729 111.384H27.3364V29.1614H21.0235L0.236828 0.368084H61.6729V111.384ZM223.35 60.8803C223.35 94.5495 200.254 111.384 154.062 111.384H146.825C100.632 111.384 77.5359 94.5495 77.5359 60.8803V0.368084H111.872V60.8803C111.872 70.94 116.286 77.4069 125.114 80.2811C129.836 81.9235 139.485 82.7447 154.062 82.7447C165.661 82.7447 173.924 81.5129 178.851 79.0493C185.524 75.8672 188.86 69.8108 188.86 60.8803V0.368084H223.35V60.8803ZM371.312 97.0644C371.312 107.124 366.744 112.154 357.608 112.154C351.039 112.154 344.777 109.69 338.823 104.763L273.846 50.41V111.384H239.355V14.6878C239.355 10.5818 240.638 7.19431 243.205 4.52541C245.874 1.85651 249.62 0.522057 254.445 0.522057C260.706 0.522057 266.506 2.72903 271.844 7.14298L336.821 61.4962V0.368084H371.312V97.0644ZM423.328 111.384H388.991V0.368084H423.328V111.384ZM614.387 0.368084L539.555 100.606C533.396 108.92 527.134 113.078 520.77 113.078C514.406 113.078 508.144 108.869 501.985 100.452L429.001 0.368084H471.806L521.386 69.041L571.274 0.368084H614.387ZM737.339 82.7447L715.167 111.384H616.777V0.368084H737.339L715.167 29.1614H651.267V40.8635H731.95L709.778 69.5029H651.267V82.7447H737.339ZM907.298 111.384H857.256L823.689 83.5146H776.265V111.384H741.775V54.7213H837.547C843.398 54.7213 848.223 53.8488 852.021 52.1037C856.845 49.8454 859.258 46.5093 859.258 42.0953C859.258 33.4727 852.021 29.1614 837.547 29.1614H741.775L764.255 0.368084H834.314C851.662 0.368084 865.725 3.65289 876.503 10.2225C888.616 17.7159 894.672 28.3915 894.672 42.2493C894.672 50.0507 892.208 57.1336 887.281 63.4979C882.457 69.7595 875.733 74.5841 867.11 77.9715L907.298 111.384ZM1059.41 0.368084L1037.24 29.1614H958.711C954.502 29.1614 952.398 30.6498 952.398 33.6267C952.398 36.6035 954.502 38.092 958.711 38.092H1015.22C1028.67 38.092 1039.91 41.3768 1048.94 47.9464C1058.28 54.9266 1062.95 63.9598 1062.95 75.046C1062.95 86.0295 1058.23 94.9088 1048.79 101.684C1039.96 108.151 1028.77 111.384 1015.22 111.384H913.596L935.769 82.7447H1015.22C1018.81 82.7447 1022.05 82.1288 1024.92 80.897C1028.62 79.3573 1030.46 77.253 1030.46 74.5841C1030.46 71.8125 1028.62 69.7082 1024.92 68.2711C1022.15 67.2446 1018.92 66.7313 1015.22 66.7313H958.711C946.188 66.7313 935.717 63.8571 927.3 58.1087C918.267 51.9497 913.75 43.789 913.75 33.6267C913.75 23.3617 918.267 15.1497 927.3 8.99069C935.717 3.24228 946.188 0.368084 958.711 0.368084H1059.41ZM1189.49 82.7447L1167.32 111.384H1068.93V0.368084H1189.49L1167.32 29.1614H1103.42V40.8635H1184.1L1161.93 69.5029H1103.42V82.7447H1189.49Z" fill="#170813"/>
</svg>
