<svg width="772" height="73" viewBox="0 0 772 73" fill="none" xmlns="http://www.w3.org/2000/svg">
<path d="M767 72.5L5 72.5C2.51471 72.5 0.499997 70.4853 0.499997 68L0.499997 59.3667C0.499997 57.7458 1.37176 56.2501 2.7821 55.4512L10.1547 51.2752C11.8785 50.2988 12.944 48.4707 12.944 46.4896L12.944 26.287C12.944 24.2718 11.8419 22.418 10.0716 21.4553L2.85016 17.5282C1.40173 16.7405 0.499999 15.2237 0.499999 13.5749L0.5 4.99998C0.5 2.5147 2.51471 0.499979 5 0.499979L767 0.5C769.485 0.5 771.5 2.51472 771.5 5L771.5 13.9512C771.5 15.6488 770.545 17.2019 769.029 17.9675L762.076 21.4813C760.224 22.417 759.056 24.3153 759.056 26.3902L759.056 46.4896C759.056 48.4707 760.121 50.2988 761.845 51.2752L769.218 55.4513C770.628 56.2501 771.5 57.7458 771.5 59.3668L771.5 68C771.5 70.4853 769.485 72.5 767 72.5Z" fill="white" stroke="#5A1F49"/>
</svg>
