<svg width="374" height="397" viewBox="0 0 374 397" fill="none" xmlns="http://www.w3.org/2000/svg">
<path fill-rule="evenodd" clip-rule="evenodd" d="M11.4168 0H61.2236L70.4906 7.74565H304.014L313.062 0H362.583C365.611 0 368.515 1.36009 370.656 3.78107C372.797 6.20206 374 9.48563 374 12.9094V108.486L367.15 118.768V279.653L374 289.69V384.091C374 387.514 372.797 390.798 370.656 393.219C368.515 395.64 365.611 397 362.583 397H313.224L303.883 389.254H70.5146L61.3811 397H11.4168C8.38886 397 5.48492 395.64 3.34385 393.219C1.20279 390.798 0 387.514 0 384.091V290.013L6.85007 279.557V118.852L0 108.708V12.9094C0 9.48563 1.20279 6.20206 3.34385 3.78107C5.48492 1.36009 8.38886 0 11.4168 0Z" fill="#1FC1A9"/>
</svg>
