<svg width="545" height="75" viewBox="0 0 545 75" fill="none" xmlns="http://www.w3.org/2000/svg">
<path d="M540 73.8193L5.07214 73.8193C2.58685 73.8193 0.57214 71.8046 0.572141 69.3193L0.572141 60.0791C0.572141 58.7183 1.18792 57.4306 2.24713 56.5763L7.30877 52.494C8.60333 51.4499 9.35595 49.8761 9.35595 48.2129L9.35596 26.8348C9.35596 25.1334 8.56848 23.5277 7.2232 22.4861L2.31708 18.6872C1.21643 17.8349 0.572143 16.5212 0.572143 15.1291L0.572143 5.95019C0.572143 3.4649 2.58685 1.45018 5.07214 1.45018L540 1.4502C542.485 1.4502 544.5 3.46492 544.5 5.9502L544.5 15.5008C544.5 16.9486 543.803 18.308 542.628 19.1536L538.004 22.4804C536.568 23.5139 535.716 25.1754 535.716 26.945L535.716 48.2129C535.716 49.8761 536.469 51.4499 537.763 52.494L542.825 56.5764C543.884 57.4306 544.5 58.7183 544.5 60.0791L544.5 69.3193C544.5 71.8046 542.485 73.8193 540 73.8193Z" fill="white" stroke="#5A1F49"/>
</svg>
