<svg width="605" height="135" viewBox="0 0 605 135" fill="none" xmlns="http://www.w3.org/2000/svg">
<g filter="url(#filter0_d_1_118)">
<path d="M35.0721 100.319L570 100.319C572.761 100.319 575 98.0808 575 95.3193L575 86.0791C575 84.5671 574.316 83.1364 573.139 82.1872L568.077 78.1049C566.9 77.1557 566.216 75.7249 566.216 74.2129L566.216 52.945C566.216 51.3363 566.99 49.8258 568.296 48.8863L572.92 45.5595C574.226 44.6199 575 43.1095 575 41.5008L575 31.9502C575 29.1888 572.761 26.9502 570 26.9502L35.0721 26.9502C32.3107 26.9502 30.0721 29.1888 30.0721 31.9502L30.0721 41.1291C30.0721 42.6759 30.788 44.1356 32.011 45.0825L36.9171 48.8814C38.1401 49.8284 38.856 51.288 38.856 52.8348L38.856 74.2129C38.856 75.7249 38.1718 77.1556 36.9949 78.1048L31.9332 82.1871C30.7563 83.1363 30.0721 84.5671 30.0721 86.0791L30.0721 95.3193C30.0721 98.0807 32.3107 100.319 35.0721 100.319Z" fill="white"/>
<path d="M570 99.8193L35.0721 99.8193C32.5868 99.8193 30.5721 97.8046 30.5721 95.3193L30.5721 86.0791C30.5721 84.7183 31.1879 83.4306 32.2471 82.5763L37.3088 78.494C38.6033 77.4499 39.356 75.8761 39.356 74.2129L39.356 52.8348C39.356 51.1334 38.5685 49.5277 37.2232 48.4861L32.3171 44.6872C31.2164 43.8349 30.5721 42.5212 30.5721 41.1291L30.5721 31.9502C30.5721 29.4649 32.5869 27.4502 35.0721 27.4502L570 27.4502C572.485 27.4502 574.5 29.4649 574.5 31.9502L574.5 41.5008C574.5 42.9486 573.803 44.308 572.628 45.1536L568.004 48.4804C566.568 49.5139 565.716 51.1754 565.716 52.945L565.716 74.2129C565.716 75.8761 566.469 77.4499 567.763 78.494L572.825 82.5764C573.884 83.4306 574.5 84.7183 574.5 86.0791L574.5 95.3193C574.5 97.8046 572.485 99.8193 570 99.8193Z" stroke="#5A1F49"/>
</g>
<defs>
<filter id="filter0_d_1_118" x="0.0721436" y="0.950195" width="604.928" height="133.369" filterUnits="userSpaceOnUse" color-interpolation-filters="sRGB">
<feFlood flood-opacity="0" result="BackgroundImageFix"/>
<feColorMatrix in="SourceAlpha" type="matrix" values="0 0 0 0 0 0 0 0 0 0 0 0 0 0 0 0 0 0 127 0" result="hardAlpha"/>
<feOffset dy="4"/>
<feGaussianBlur stdDeviation="15"/>
<feComposite in2="hardAlpha" operator="out"/>
<feColorMatrix type="matrix" values="0 0 0 0 1 0 0 0 0 1 0 0 0 0 1 0 0 0 0.4 0"/>
<feBlend mode="normal" in2="BackgroundImageFix" result="effect1_dropShadow_1_118"/>
<feBlend mode="normal" in="SourceGraphic" in2="effect1_dropShadow_1_118" result="shape"/>
</filter>
</defs>
</svg>
