<svg width="52" height="53" viewBox="0 0 52 53" fill="none" xmlns="http://www.w3.org/2000/svg">
<circle cx="26.1615" cy="25.9676" r="25.0941" fill="white" stroke="white"/>
<g filter="url(#filter0_d_2035_6)">
<mask id="path-2-inside-1_2035_6" fill="white">
<path d="M27.4564 13.3717C28.8734 13.3755 29.5926 13.383 30.2136 13.4007L30.4579 13.4095C30.7401 13.4196 31.0184 13.4322 31.3547 13.4473C32.6949 13.5103 33.6093 13.7219 34.4117 14.033C35.243 14.3529 35.9433 14.7862 36.6436 15.4852C37.2843 16.1147 37.78 16.8764 38.0959 17.7172C38.407 18.5195 38.6186 19.4339 38.6816 20.7754C38.6967 21.1104 38.7093 21.3888 38.7194 21.6722L38.7269 21.9165C38.7458 22.5362 38.7534 23.2554 38.7559 24.6724L38.7571 25.6121V27.2621C38.7602 28.1808 38.7506 29.0995 38.7282 30.018L38.7206 30.2624C38.7105 30.5458 38.6979 30.8241 38.6828 31.1592C38.6199 32.5006 38.4057 33.4138 38.0959 34.2174C37.78 35.0581 37.2843 35.8199 36.6436 36.4493C36.0142 37.09 35.2525 37.5856 34.4117 37.9016C33.6093 38.2127 32.6949 38.4243 31.3547 38.4873L30.4579 38.525L30.2136 38.5326C29.5926 38.5502 28.8734 38.559 27.4564 38.5616L26.5168 38.5628H24.868C23.9489 38.5661 23.0297 38.5564 22.1109 38.5339L21.8665 38.5263C21.5675 38.515 21.2686 38.502 20.9697 38.4873C19.6295 38.4243 18.7151 38.2127 17.9115 37.9016C17.0712 37.5855 16.3099 37.0899 15.6808 36.4493C15.0396 35.82 14.5436 35.0583 14.2273 34.2174C13.9162 33.415 13.7046 32.5006 13.6416 31.1592L13.6038 30.2624L13.5975 30.018C13.5743 29.0996 13.5638 28.1808 13.566 27.2621V24.6724C13.5625 23.7537 13.5718 22.835 13.5937 21.9165L13.6026 21.6722C13.6126 21.3888 13.6252 21.1104 13.6403 20.7754C13.7033 19.4339 13.9149 18.5208 14.226 17.7172C14.5431 16.876 15.04 16.1143 15.6821 15.4852C16.3108 14.8448 17.0716 14.3492 17.9115 14.033C18.7151 13.7219 19.6283 13.5103 20.9697 13.4473C21.3047 13.4322 21.5844 13.4196 21.8665 13.4095L22.1109 13.4019C23.0293 13.3796 23.948 13.3699 24.8668 13.373L27.4564 13.3717ZM26.1616 19.6695C24.4913 19.6695 22.8894 20.333 21.7084 21.5141C20.5273 22.6951 19.8638 24.297 19.8638 25.9673C19.8638 27.6375 20.5273 29.2394 21.7084 30.4205C22.8894 31.6015 24.4913 32.265 26.1616 32.265C27.8319 32.265 29.4337 31.6015 30.6148 30.4205C31.7959 29.2394 32.4594 27.6375 32.4594 25.9673C32.4594 24.297 31.7959 22.6951 30.6148 21.5141C29.4337 20.333 27.8319 19.6695 26.1616 19.6695ZM26.1616 22.1886C26.6578 22.1885 27.1492 22.2862 27.6077 22.476C28.0661 22.6658 28.4828 22.9441 28.8337 23.2949C29.1846 23.6457 29.463 24.0622 29.653 24.5207C29.843 24.9791 29.9408 25.4704 29.9409 25.9666C29.941 26.4629 29.8433 26.9542 29.6535 27.4127C29.4637 27.8712 29.1854 28.2878 28.8346 28.6387C28.4838 28.9897 28.0672 29.2681 27.6088 29.4581C27.1504 29.648 26.6591 29.7459 26.1628 29.7459C25.1607 29.7459 24.1996 29.3478 23.4909 28.6392C22.7823 27.9306 22.3842 26.9694 22.3842 25.9673C22.3842 24.9651 22.7823 24.004 23.4909 23.2953C24.1996 22.5867 25.1607 22.1886 26.1628 22.1886M32.7755 17.7802C32.3579 17.7802 31.9575 17.946 31.6622 18.2413C31.3669 18.5366 31.2011 18.937 31.2011 19.3546C31.2011 19.7722 31.3669 20.1726 31.6622 20.4679C31.9575 20.7632 32.3579 20.929 32.7755 20.929C33.1931 20.929 33.5935 20.7632 33.8888 20.4679C34.1841 20.1726 34.35 19.7722 34.35 19.3546C34.35 18.937 34.1841 18.5366 33.8888 18.2413C33.5935 17.946 33.1931 17.7802 32.7755 17.7802Z"/>
</mask>
<path d="M27.4564 13.3717C28.8734 13.3755 29.5926 13.383 30.2136 13.4007L30.4579 13.4095C30.7401 13.4196 31.0184 13.4322 31.3547 13.4473C32.6949 13.5103 33.6093 13.7219 34.4117 14.033C35.243 14.3529 35.9433 14.7862 36.6436 15.4852C37.2843 16.1147 37.78 16.8764 38.0959 17.7172C38.407 18.5195 38.6186 19.4339 38.6816 20.7754C38.6967 21.1104 38.7093 21.3888 38.7194 21.6722L38.7269 21.9165C38.7458 22.5362 38.7534 23.2554 38.7559 24.6724L38.7571 25.6121V27.2621C38.7602 28.1808 38.7506 29.0995 38.7282 30.018L38.7206 30.2624C38.7105 30.5458 38.6979 30.8241 38.6828 31.1592C38.6199 32.5006 38.4057 33.4138 38.0959 34.2174C37.78 35.0581 37.2843 35.8199 36.6436 36.4493C36.0142 37.09 35.2525 37.5856 34.4117 37.9016C33.6093 38.2127 32.6949 38.4243 31.3547 38.4873L30.4579 38.525L30.2136 38.5326C29.5926 38.5502 28.8734 38.559 27.4564 38.5616L26.5168 38.5628H24.868C23.9489 38.5661 23.0297 38.5564 22.1109 38.5339L21.8665 38.5263C21.5675 38.515 21.2686 38.502 20.9697 38.4873C19.6295 38.4243 18.7151 38.2127 17.9115 37.9016C17.0712 37.5855 16.3099 37.0899 15.6808 36.4493C15.0396 35.82 14.5436 35.0583 14.2273 34.2174C13.9162 33.415 13.7046 32.5006 13.6416 31.1592L13.6038 30.2624L13.5975 30.018C13.5743 29.0996 13.5638 28.1808 13.566 27.2621V24.6724C13.5625 23.7537 13.5718 22.835 13.5937 21.9165L13.6026 21.6722C13.6126 21.3888 13.6252 21.1104 13.6403 20.7754C13.7033 19.4339 13.9149 18.5208 14.226 17.7172C14.5431 16.876 15.04 16.1143 15.6821 15.4852C16.3108 14.8448 17.0716 14.3492 17.9115 14.033C18.7151 13.7219 19.6283 13.5103 20.9697 13.4473C21.3047 13.4322 21.5844 13.4196 21.8665 13.4095L22.1109 13.4019C23.0293 13.3796 23.948 13.3699 24.8668 13.373L27.4564 13.3717ZM26.1616 19.6695C24.4913 19.6695 22.8894 20.333 21.7084 21.5141C20.5273 22.6951 19.8638 24.297 19.8638 25.9673C19.8638 27.6375 20.5273 29.2394 21.7084 30.4205C22.8894 31.6015 24.4913 32.265 26.1616 32.265C27.8319 32.265 29.4337 31.6015 30.6148 30.4205C31.7959 29.2394 32.4594 27.6375 32.4594 25.9673C32.4594 24.297 31.7959 22.6951 30.6148 21.5141C29.4337 20.333 27.8319 19.6695 26.1616 19.6695ZM26.1616 22.1886C26.6578 22.1885 27.1492 22.2862 27.6077 22.476C28.0661 22.6658 28.4828 22.9441 28.8337 23.2949C29.1846 23.6457 29.463 24.0622 29.653 24.5207C29.843 24.9791 29.9408 25.4704 29.9409 25.9666C29.941 26.4629 29.8433 26.9542 29.6535 27.4127C29.4637 27.8712 29.1854 28.2878 28.8346 28.6387C28.4838 28.9897 28.0672 29.2681 27.6088 29.4581C27.1504 29.648 26.6591 29.7459 26.1628 29.7459C25.1607 29.7459 24.1996 29.3478 23.4909 28.6392C22.7823 27.9306 22.3842 26.9694 22.3842 25.9673C22.3842 24.9651 22.7823 24.004 23.4909 23.2953C24.1996 22.5867 25.1607 22.1886 26.1628 22.1886M32.7755 17.7802C32.3579 17.7802 31.9575 17.946 31.6622 18.2413C31.3669 18.5366 31.2011 18.937 31.2011 19.3546C31.2011 19.7722 31.3669 20.1726 31.6622 20.4679C31.9575 20.7632 32.3579 20.929 32.7755 20.929C33.1931 20.929 33.5935 20.7632 33.8888 20.4679C34.1841 20.1726 34.35 19.7722 34.35 19.3546C34.35 18.937 34.1841 18.5366 33.8888 18.2413C33.5935 17.946 33.1931 17.7802 32.7755 17.7802Z" fill="#401735"/>
<path d="M27.4564 13.3717L27.4577 12.8717L27.4562 12.8717L27.4564 13.3717ZM30.2136 13.4007L30.2316 12.901L30.2278 12.9009L30.2136 13.4007ZM30.4579 13.4095L30.4399 13.9092L30.4401 13.9092L30.4579 13.4095ZM31.3547 13.4473L31.3782 12.9478L31.3772 12.9478L31.3547 13.4473ZM34.4117 14.033L34.2309 14.4992L34.2321 14.4996L34.4117 14.033ZM36.6436 15.4852L36.2904 15.8391L36.2932 15.8419L36.6436 15.4852ZM38.0959 17.7172L37.6278 17.893L37.6297 17.8979L38.0959 17.7172ZM38.6816 20.7754L39.1811 20.7528L39.181 20.7519L38.6816 20.7754ZM38.7194 21.6722L39.2191 21.6567L39.219 21.6544L38.7194 21.6722ZM38.7269 21.9165L39.2267 21.9013L39.2267 21.9011L38.7269 21.9165ZM38.7559 24.6724L39.2559 24.6718V24.6716L38.7559 24.6724ZM38.7571 25.6121H39.2571V25.6114L38.7571 25.6121ZM38.7571 27.2621H38.2571L38.2572 27.2638L38.7571 27.2621ZM38.7282 30.018L39.2279 30.0335L39.228 30.0302L38.7282 30.018ZM38.7206 30.2624L39.2203 30.2801L39.2204 30.2778L38.7206 30.2624ZM38.6828 31.1592L39.1823 31.1826L39.1823 31.1817L38.6828 31.1592ZM38.0959 34.2174L37.6293 34.0375L37.6278 34.0415L38.0959 34.2174ZM36.6436 36.4493L36.2932 36.0926L36.2869 36.0989L36.6436 36.4493ZM34.4117 37.9016L34.2358 37.4335L34.2309 37.4354L34.4117 37.9016ZM31.3547 38.4873L31.3758 38.9868L31.3782 38.9867L31.3547 38.4873ZM30.4579 38.525L30.4734 39.0248L30.479 39.0246L30.4579 38.525ZM30.2136 38.5326L30.2278 39.0324L30.229 39.0324L30.2136 38.5326ZM27.4564 38.5616L27.4571 39.0616L27.4573 39.0616L27.4564 38.5616ZM26.5168 38.5628V39.0628H26.5174L26.5168 38.5628ZM24.868 38.5628V38.0628L24.8663 38.0628L24.868 38.5628ZM22.1109 38.5339L22.0954 39.0336L22.0986 39.0337L22.1109 38.5339ZM21.8665 38.5263L21.8476 39.026L21.851 39.0261L21.8665 38.5263ZM20.9697 38.4873L20.9943 37.9879L20.9932 37.9878L20.9697 38.4873ZM17.9115 37.9016L18.092 37.4353L18.0875 37.4336L17.9115 37.9016ZM15.6808 36.4493L16.0376 36.0989L16.0311 36.0925L15.6808 36.4493ZM14.2273 34.2174L14.6953 34.0413L14.6935 34.0366L14.2273 34.2174ZM13.6416 31.1592L13.142 31.1802L13.1421 31.1826L13.6416 31.1592ZM13.6038 30.2624L13.1039 30.2752L13.1043 30.2834L13.6038 30.2624ZM13.5975 30.018L13.0977 30.0306L13.0977 30.0309L13.5975 30.018ZM13.566 27.2621L14.066 27.2633V27.2621H13.566ZM13.566 24.6724H14.066L14.066 24.6705L13.566 24.6724ZM13.5937 21.9165L13.094 21.8985L13.0939 21.9046L13.5937 21.9165ZM13.6026 21.6722L14.1022 21.6902L14.1022 21.6899L13.6026 21.6722ZM13.6403 20.7754L13.1409 20.7519L13.1408 20.7528L13.6403 20.7754ZM14.226 17.7172L14.6923 17.8977L14.6939 17.8935L14.226 17.7172ZM15.6821 15.4852L16.0321 15.8425L16.0389 15.8355L15.6821 15.4852ZM17.9115 14.033L18.0877 14.5009L18.092 14.4992L17.9115 14.033ZM20.9697 13.4473L20.9472 12.9478L20.9462 12.9478L20.9697 13.4473ZM21.8665 13.4095L21.851 12.9097L21.8487 12.9098L21.8665 13.4095ZM22.1109 13.4019L22.0987 12.9021L22.0954 12.9022L22.1109 13.4019ZM24.8668 13.373L24.8651 13.873L24.867 13.873L24.8668 13.373ZM26.1616 19.6695V19.1695V19.6695ZM19.8638 25.9673H19.3638H19.8638ZM26.1616 32.265V31.765V32.265ZM32.4594 25.9673H31.9594H32.4594ZM27.6088 29.4581L27.8003 29.92L27.6088 29.4581ZM26.1628 29.7459V30.2459H26.1629L26.1628 29.7459ZM27.4551 13.8717C28.8718 13.8755 29.5854 13.883 30.1994 13.9005L30.2278 12.9009C29.5998 12.883 28.875 12.8755 27.4577 12.8717L27.4551 13.8717ZM30.1955 13.9003L30.4399 13.9092L30.476 12.9098L30.2316 12.901L30.1955 13.9003ZM30.4401 13.9092C30.7195 13.9192 30.9954 13.9316 31.3323 13.9468L31.3772 12.9478C31.0415 12.9327 30.7607 12.92 30.4758 12.9098L30.4401 13.9092ZM31.3313 13.9467C32.6247 14.0075 33.4852 14.21 34.2309 14.4992L34.5924 13.5668C33.7335 13.2337 32.7651 13.013 31.3782 12.9478L31.3313 13.9467ZM34.2321 14.4996C35.0012 14.7956 35.6416 15.1915 36.2904 15.8391L36.9968 15.1314C36.245 14.3809 35.4848 13.9102 34.5913 13.5663L34.2321 14.4996ZM36.2932 15.8419C36.882 16.4204 37.3375 17.1204 37.6278 17.893L38.5639 17.5413C38.2224 16.6324 37.6866 15.809 36.994 15.1286L36.2932 15.8419ZM37.6297 17.8979C37.9189 18.6437 38.1213 19.5041 38.1821 20.7988L39.181 20.7519C39.1159 19.3638 38.8951 18.3954 38.5621 17.5364L37.6297 17.8979ZM38.1821 20.7979C38.1972 21.1335 38.2097 21.4094 38.2197 21.6899L39.219 21.6544C39.2089 21.3682 39.1962 21.0873 39.1811 20.7528L38.1821 20.7979ZM38.2196 21.6876L38.2272 21.932L39.2267 21.9011L39.2191 21.6567L38.2196 21.6876ZM38.2271 21.9318C38.2458 22.5437 38.2534 23.2566 38.2559 24.6733L39.2559 24.6716C39.2534 23.2542 39.2458 22.5288 39.2267 21.9013L38.2271 21.9318ZM38.2559 24.6731L38.2571 25.6127L39.2571 25.6114L39.2559 24.6718L38.2559 24.6731ZM38.2571 25.6121V27.2621H39.2571V25.6121H38.2571ZM38.2572 27.2638C38.2602 28.1779 38.2506 29.092 38.2283 30.0058L39.228 30.0302C39.2505 29.1071 39.2602 28.1838 39.2571 27.2604L38.2572 27.2638ZM38.2284 30.0025L38.2209 30.2469L39.2204 30.2778L39.2279 30.0335L38.2284 30.0025ZM38.2209 30.2446C38.211 30.5252 38.1985 30.801 38.1833 31.1366L39.1823 31.1817C39.1974 30.8472 39.2101 30.5663 39.2203 30.2801L38.2209 30.2446ZM38.1834 31.1357C38.1226 32.4294 37.9179 33.2891 37.6294 34.0375L38.5624 34.3972C38.8935 33.5384 39.1171 32.5718 39.1823 31.1826L38.1834 31.1357ZM37.6278 34.0415C37.3375 34.8142 36.882 35.5142 36.2932 36.0926L36.994 36.806C37.6866 36.1255 38.2224 35.3021 38.5639 34.3932L37.6278 34.0415ZM36.2869 36.0989C35.7085 36.6877 35.0085 37.1432 34.2358 37.4335L34.5875 38.3696C35.4964 38.0281 36.3199 37.4923 37.0003 36.7997L36.2869 36.0989ZM34.2309 37.4354C33.4852 37.7246 32.6247 37.927 31.3313 37.9878L31.3782 38.9867C32.7651 38.9215 33.7335 38.7008 34.5924 38.3677L34.2309 37.4354ZM31.3337 37.9877L30.4369 38.0255L30.479 39.0246L31.3758 38.9868L31.3337 37.9877ZM30.4425 38.0253L30.1981 38.0328L30.229 39.0324L30.4734 39.0248L30.4425 38.0253ZM30.1994 38.0328C29.5852 38.0502 28.8713 38.0591 27.4555 38.0616L27.4573 39.0616C28.8755 39.059 29.6 39.0502 30.2278 39.0324L30.1994 38.0328ZM27.4557 38.0616L26.5161 38.0628L26.5174 39.0628L27.4571 39.0616L27.4557 38.0616ZM26.5168 38.0628H24.868V39.0628H26.5168V38.0628ZM24.8663 38.0628C23.9518 38.0661 23.0373 38.0564 22.1231 38.034L22.0986 39.0337C23.0221 39.0564 23.946 39.0661 24.8698 39.0628L24.8663 38.0628ZM22.1263 38.0341L21.882 38.0265L21.851 39.0261L22.0954 39.0336L22.1263 38.0341ZM21.8854 38.0267C21.5883 38.0154 21.2912 38.0025 20.9943 37.9879L20.9451 38.9867C21.2459 39.0014 21.5467 39.0145 21.8476 39.0259L21.8854 38.0267ZM20.9932 37.9878C19.6998 37.927 18.8392 37.7246 18.092 37.4353L17.731 38.3678C18.591 38.7008 19.5593 38.9215 20.9462 38.9867L20.9932 37.9878ZM18.0875 37.4336C17.3153 37.1431 16.6157 36.6876 16.0376 36.099L15.3241 36.7996C16.0041 37.4921 16.827 38.0279 17.7355 38.3696L18.0875 37.4336ZM16.0311 36.0925C15.4418 35.5141 14.9859 34.8141 14.6953 34.0413L13.7593 34.3934C14.1012 35.3024 14.6375 36.1258 15.3306 36.8061L16.0311 36.0925ZM14.6935 34.0366C14.4043 33.2909 14.2018 32.4304 14.141 31.1357L13.1421 31.1826C13.2073 32.5707 13.4281 33.5392 13.7611 34.3981L14.6935 34.0366ZM14.1412 31.1381L14.1034 30.2413L13.1043 30.2834L13.142 31.1802L14.1412 31.1381ZM14.1036 30.2495L14.0973 30.0051L13.0977 30.0309L13.104 30.2752L14.1036 30.2495ZM14.0974 30.0054C14.0743 29.0915 14.0638 28.1774 14.066 27.2633L13.066 27.2609C13.0638 28.1842 13.0743 29.1076 13.0977 30.0306L14.0974 30.0054ZM14.066 27.2621V24.6724H13.066V27.2621H14.066ZM14.066 24.6705C14.0626 23.7564 14.0717 22.8423 14.0936 21.9285L13.0939 21.9046C13.0718 22.8277 13.0625 23.751 13.066 24.6743L14.066 24.6705ZM14.0934 21.9346L14.1022 21.6902L13.1029 21.6542L13.0941 21.8985L14.0934 21.9346ZM14.1022 21.6899C14.1122 21.4094 14.1247 21.1335 14.1398 20.7979L13.1408 20.7528C13.1258 21.0873 13.113 21.3682 13.1029 21.6544L14.1022 21.6899ZM14.1398 20.7988C14.2006 19.5042 14.403 18.6449 14.6923 17.8977L13.7598 17.5367C13.4268 18.3966 13.2061 19.3637 13.1409 20.7519L14.1398 20.7988ZM14.6939 17.8935C14.9852 17.1205 15.4419 16.4205 16.032 15.8424L15.3322 15.1281C14.6381 15.8081 14.1009 16.6316 13.7582 17.5408L14.6939 17.8935ZM16.0389 15.8355C16.6167 15.247 17.3158 14.7915 18.0877 14.5009L17.7353 13.565C16.8274 13.9069 16.0049 14.4427 15.3253 15.135L16.0389 15.8355ZM18.092 14.4992C18.8393 14.21 19.6986 14.0075 20.9931 13.9467L20.9462 12.9478C19.558 13.013 18.5909 13.2338 17.731 13.5667L18.092 14.4992ZM20.9922 13.9468C21.3277 13.9316 21.605 13.9192 21.8843 13.9092L21.8487 12.9098C21.5638 12.92 21.2817 12.9327 20.9472 12.9478L20.9922 13.9468ZM21.882 13.9093L22.1263 13.9017L22.0954 12.9022L21.851 12.9097L21.882 13.9093ZM22.123 13.9018C23.0369 13.8795 23.951 13.8699 24.8651 13.873L24.8684 12.873C23.9451 12.8699 23.0217 12.8796 22.0987 12.9021L22.123 13.9018ZM24.867 13.873L27.4567 13.8717L27.4562 12.8717L24.8665 12.873L24.867 13.873ZM26.1616 19.1695C24.3587 19.1695 22.6297 19.8857 21.3548 21.1605L22.0619 21.8676C23.1492 20.7803 24.6239 20.1695 26.1616 20.1695V19.1695ZM21.3548 21.1605C20.08 22.4353 19.3638 24.1644 19.3638 25.9673H20.3638C20.3638 24.4296 20.9746 22.9549 22.0619 21.8676L21.3548 21.1605ZM19.3638 25.9673C19.3638 27.7701 20.08 29.4992 21.3548 30.774L22.0619 30.0669C20.9746 28.9796 20.3638 27.5049 20.3638 25.9673H19.3638ZM21.3548 30.774C22.6297 32.0489 24.3587 32.765 26.1616 32.765V31.765C24.6239 31.765 23.1492 31.1542 22.0619 30.0669L21.3548 30.774ZM26.1616 32.765C27.9645 32.765 29.6935 32.0489 30.9683 30.774L30.2612 30.0669C29.1739 31.1542 27.6993 31.765 26.1616 31.765V32.765ZM30.9683 30.774C32.2432 29.4992 32.9594 27.7701 32.9594 25.9673H31.9594C31.9594 27.5049 31.3485 28.9796 30.2612 30.0669L30.9683 30.774ZM32.9594 25.9673C32.9594 24.1644 32.2432 22.4353 30.9683 21.1605L30.2612 21.8676C31.3485 22.9549 31.9594 24.4296 31.9594 25.9673H32.9594ZM30.9683 21.1605C29.6935 19.8857 27.9645 19.1695 26.1616 19.1695V20.1695C27.6993 20.1695 29.1739 20.7803 30.2612 21.8676L30.9683 21.1605ZM26.1617 22.6886C26.5922 22.6885 27.0186 22.7733 27.4164 22.938L27.7989 22.014C27.2798 21.7991 26.7234 21.6885 26.1615 21.6886L26.1617 22.6886ZM27.4164 22.938C27.8142 23.1027 28.1757 23.3441 28.4802 23.6485L29.1872 22.9413C28.7898 22.544 28.3181 22.229 27.7989 22.014L27.4164 22.938ZM28.4802 23.6485C28.7847 23.9529 29.0263 24.3143 29.1911 24.7121L30.1149 24.3292C29.8998 23.8102 29.5846 23.3385 29.1872 22.9413L28.4802 23.6485ZM29.1911 24.7121C29.3559 25.1098 29.4408 25.5362 29.4409 25.9667L30.4409 25.9666C30.4408 25.4047 30.33 24.8483 30.1149 24.3292L29.1911 24.7121ZM29.4409 25.9667C29.441 26.3973 29.3562 26.8236 29.1915 27.2215L30.1155 27.604C30.3304 27.0848 30.441 26.5284 30.4409 25.9666L29.4409 25.9667ZM29.1915 27.2215C29.0268 27.6193 28.7854 27.9807 28.481 28.2852L29.1882 28.9922C29.5854 28.5949 29.9005 28.1231 30.1155 27.604L29.1915 27.2215ZM28.481 28.2852C28.1766 28.5898 27.8152 28.8313 27.4174 28.9962L27.8003 29.92C28.3193 29.7049 28.7909 29.3896 29.1882 28.9922L28.481 28.2852ZM27.4174 28.9962C27.0197 29.161 26.5933 29.2459 26.1628 29.2459L26.1629 30.2459C26.7248 30.2458 27.2812 30.1351 27.8003 29.92L27.4174 28.9962ZM26.1628 29.2459C25.2933 29.2459 24.4593 28.9005 23.8445 28.2856L23.1374 28.9927C23.9398 29.7951 25.0281 30.2459 26.1628 30.2459V29.2459ZM23.8445 28.2856C23.2296 27.6708 22.8842 26.8368 22.8842 25.9673H21.8842C21.8842 27.102 22.335 28.1903 23.1374 28.9927L23.8445 28.2856ZM22.8842 25.9673C22.8842 25.0977 23.2296 24.2638 23.8445 23.6489L23.1374 22.9418C22.335 23.7442 21.8842 24.8325 21.8842 25.9673H22.8842ZM23.8445 23.6489C24.4593 23.034 25.2933 22.6886 26.1628 22.6886V21.6886C25.0281 21.6886 23.9398 22.1394 23.1374 22.9418L23.8445 23.6489ZM32.7755 17.2802C32.2253 17.2802 31.6977 17.4987 31.3087 17.8877L32.0158 18.5948C32.2173 18.3934 32.4906 18.2802 32.7755 18.2802V17.2802ZM31.3087 17.8877C30.9196 18.2768 30.7011 18.8044 30.7011 19.3546H31.7011C31.7011 19.0696 31.8143 18.7963 32.0158 18.5948L31.3087 17.8877ZM30.7011 19.3546C30.7011 19.9048 30.9196 20.4324 31.3087 20.8215L32.0158 20.1143C31.8143 19.9128 31.7011 19.6396 31.7011 19.3546H30.7011ZM31.3087 20.8215C31.6977 21.2105 32.2253 21.429 32.7755 21.429V20.429C32.4906 20.429 32.2173 20.3158 32.0158 20.1143L31.3087 20.8215ZM32.7755 21.429C33.3257 21.429 33.8533 21.2105 34.2424 20.8215L33.5353 20.1143C33.3338 20.3158 33.0605 20.429 32.7755 20.429V21.429ZM34.2424 20.8215C34.6314 20.4324 34.85 19.9048 34.85 19.3546H33.85C33.85 19.6396 33.7368 19.9128 33.5353 20.1143L34.2424 20.8215ZM34.85 19.3546C34.85 18.8044 34.6314 18.2768 34.2424 17.8877L33.5353 18.5948C33.7368 18.7963 33.85 19.0696 33.85 19.3546H34.85ZM34.2424 17.8877C33.8533 17.4987 33.3257 17.2802 32.7755 17.2802V18.2802C33.0605 18.2802 33.3338 18.3934 33.5353 18.5948L34.2424 17.8877Z" fill="black" mask="url(#path-2-inside-1_2035_6)"/>
</g>
<defs>
<filter id="filter0_d_2035_6" x="3.56531" y="7.3717" width="45.1924" height="45.1917" filterUnits="userSpaceOnUse" color-interpolation-filters="sRGB">
<feFlood flood-opacity="0" result="BackgroundImageFix"/>
<feColorMatrix in="SourceAlpha" type="matrix" values="0 0 0 0 0 0 0 0 0 0 0 0 0 0 0 0 0 0 127 0" result="hardAlpha"/>
<feOffset dy="4"/>
<feGaussianBlur stdDeviation="5"/>
<feComposite in2="hardAlpha" operator="out"/>
<feColorMatrix type="matrix" values="0 0 0 0 0 0 0 0 0 0 0 0 0 0 0 0 0 0 0.25 0"/>
<feBlend mode="normal" in2="BackgroundImageFix" result="effect1_dropShadow_2035_6"/>
<feBlend mode="normal" in="SourceGraphic" in2="effect1_dropShadow_2035_6" result="shape"/>
</filter>
</defs>
</svg>
