<svg width="1200" height="890" viewBox="0 0 1200 890" fill="none" xmlns="http://www.w3.org/2000/svg">
<path d="M0 10.1451C0 4.62229 4.47715 0.145142 10 0.145142H259.971L298.226 37.9819C300.098 39.8336 302.625 40.8721 305.258 40.8721H893.914C896.51 40.8721 899.005 39.8625 900.87 38.0567L937.121 2.96058C938.986 1.15478 941.48 0.145142 944.076 0.145142H1190C1195.52 0.145142 1200 4.62229 1200 10.1451V879.739C1200 885.262 1195.52 889.739 1190 889.739H944.076C941.48 889.739 938.986 888.729 937.121 886.923L900.87 851.827C899.005 850.022 896.51 849.012 893.914 849.012H305.258C302.625 849.012 300.098 850.05 298.226 851.902L259.971 889.739H10C4.47716 889.739 0 885.262 0 879.739V10.1451Z" fill="#0BC3B4"/>
<g filter="url(#filter0_i_1_16)">
<path d="M0 9.99999C0 4.47715 4.47715 0 10 0H259.971L294.148 41.6001C296.047 43.9122 298.882 45.2522 301.875 45.2522H897.306C900.258 45.2522 903.059 43.9482 904.959 41.6896L937.032 3.56262C938.932 1.30393 941.733 0 944.684 0H1190C1195.52 0 1200 4.47715 1200 10V879.594C1200 885.117 1195.52 889.594 1190 889.594H944.684C941.733 889.594 938.932 888.29 937.032 886.031L904.959 847.904C903.059 845.645 900.258 844.342 897.306 844.342H301.875C298.882 844.342 296.047 845.682 294.148 847.994L259.971 889.594H10C4.47716 889.594 0 885.117 0 879.594V9.99999Z" fill="#036354"/>
</g>
<defs>
<filter id="filter0_i_1_16" x="0" y="0" width="1200" height="889.594" filterUnits="userSpaceOnUse" color-interpolation-filters="sRGB">
<feFlood flood-opacity="0" result="BackgroundImageFix"/>
<feBlend mode="normal" in="SourceGraphic" in2="BackgroundImageFix" result="shape"/>
<feColorMatrix in="SourceAlpha" type="matrix" values="0 0 0 0 0 0 0 0 0 0 0 0 0 0 0 0 0 0 127 0" result="hardAlpha"/>
<feOffset/>
<feGaussianBlur stdDeviation="20"/>
<feComposite in2="hardAlpha" operator="arithmetic" k2="-1" k3="1"/>
<feColorMatrix type="matrix" values="0 0 0 0 0.796078 0 0 0 0 0.494118 0 0 0 0 0.709804 0 0 0 0.6 0"/>
<feBlend mode="normal" in2="shape" result="effect1_innerShadow_1_16"/>
</filter>
</defs>
</svg>
