<svg width="1200" height="1031" viewBox="0 0 1200 1031" fill="none" xmlns="http://www.w3.org/2000/svg">
<g filter="url(#filter0_i_1_29)">
<path d="M0 47.5109C0 41.9881 4.47715 37.5109 10 37.5109H259.971L294.217 3.11601C296.093 1.2312 298.643 0.171631 301.303 0.171631H897.876C900.495 0.171631 903.009 1.19889 904.879 3.03267L937.112 34.6499C938.981 36.4837 941.496 37.5109 944.114 37.5109H1190C1195.52 37.5109 1200 41.9881 1200 47.5109V983.45C1200 988.973 1195.52 993.45 1190 993.45H944.114C941.496 993.45 938.981 994.477 937.112 996.311L904.879 1027.93C903.009 1029.76 900.495 1030.79 897.876 1030.79H301.303C298.643 1030.79 296.093 1029.73 294.217 1027.85L259.971 993.45H10C4.47716 993.45 0 988.973 0 983.45V47.5109Z" fill="#025448"/>
</g>
<defs>
<filter id="filter0_i_1_29" x="0" y="0.171631" width="1200" height="1030.62" filterUnits="userSpaceOnUse" color-interpolation-filters="sRGB">
<feFlood flood-opacity="0" result="BackgroundImageFix"/>
<feBlend mode="normal" in="SourceGraphic" in2="BackgroundImageFix" result="shape"/>
<feColorMatrix in="SourceAlpha" type="matrix" values="0 0 0 0 0 0 0 0 0 0 0 0 0 0 0 0 0 0 127 0" result="hardAlpha"/>
<feOffset/>
<feGaussianBlur stdDeviation="20"/>
<feComposite in2="hardAlpha" operator="arithmetic" k2="-1" k3="1"/>
<feColorMatrix type="matrix" values="0 0 0 0 0.796078 0 0 0 0 0.494118 0 0 0 0 0.709804 0 0 0 0.6 0"/>
<feBlend mode="normal" in2="shape" result="effect1_innerShadow_1_29"/>
</filter>
</defs>
</svg>
