<svg width="1050" height="325" viewBox="0 0 1050 325" fill="none" xmlns="http://www.w3.org/2000/svg">
<path d="M1045 324.5L4.99999 324.5C2.51476 324.5 0.499986 322.485 0.499986 320L0.499988 281.516C0.499988 280.035 1.22814 278.649 2.44738 277.81L10.8072 272.051C12.2975 271.025 13.1875 269.331 13.1875 267.522L13.1875 65.7217C13.1875 63.8754 12.2612 62.1524 10.7212 61.134L2.51782 55.7093C1.25793 54.8761 0.499998 53.4663 0.499998 51.9558L0.5 4.99998C0.5 2.5147 2.51465 0.49998 5 0.49998L1045 0.5C1047.49 0.5 1049.5 2.51473 1049.5 5L1049.5 52.4418C1049.5 54.0056 1048.69 55.4573 1047.36 56.2759L1039.43 61.1439C1037.8 62.1445 1036.81 63.9187 1036.81 65.83L1036.81 267.522C1036.81 269.331 1037.7 271.025 1039.19 272.051L1047.55 277.81C1048.77 278.649 1049.5 280.035 1049.5 281.516L1049.5 320C1049.5 322.485 1047.49 324.5 1045 324.5Z" fill="#170813" stroke="#2EC5AA"/>
</svg>
