<svg width="52" height="54" viewBox="0 0 52 54" fill="none" xmlns="http://www.w3.org/2000/svg">
<circle cx="26.224" cy="25.9676" r="25.0941" fill="white" stroke="white"/>
<g filter="url(#filter0_d_2035_5)">
<path d="M34.0981 24.4996C29.8276 21.964 22.6878 21.6971 18.6174 22.9649C17.9502 23.1651 17.2829 22.7647 17.0827 22.1642C16.8825 21.4969 17.2829 20.8296 17.8834 20.6294C22.621 19.2282 30.4281 19.4951 35.3659 22.4311C35.9665 22.7647 36.1666 23.5654 35.833 24.166C35.4994 24.6331 34.6986 24.8332 34.0981 24.4996ZM33.9646 28.2363C33.631 28.7034 33.0305 28.9036 32.5634 28.5699C28.9601 26.368 23.4885 25.7007 19.2847 27.0352C18.7509 27.1687 18.1503 26.9018 18.0169 26.368C17.8834 25.8341 18.1503 25.2336 18.6842 25.1001C23.5552 23.6321 29.5607 24.3661 33.6977 26.9018C34.0981 27.102 34.2983 27.7692 33.9646 28.2363ZM32.3632 31.9063C32.0963 32.3067 31.6292 32.4401 31.2288 32.1732C28.0927 30.2381 24.1558 29.8378 19.4849 30.9054C19.0178 31.0388 18.6174 30.7052 18.484 30.3049C18.3505 29.8378 18.6842 29.4374 19.0845 29.3039C24.1558 28.1696 28.5598 28.6367 32.0296 30.7719C32.4966 30.9721 32.5634 31.5059 32.3632 31.9063ZM26.2243 12.6222C24.4718 12.6222 22.7364 12.9674 21.1172 13.6381C19.4981 14.3087 18.0269 15.2917 16.7877 16.531C14.2849 19.0337 12.8789 22.4282 12.8789 25.9676C12.8789 29.507 14.2849 32.9015 16.7877 35.4042C18.0269 36.6435 19.4981 37.6265 21.1172 38.2971C22.7364 38.9678 24.4718 39.313 26.2243 39.313C29.7637 39.313 33.1582 37.907 35.6609 35.4042C38.1637 32.9015 39.5697 29.507 39.5697 25.9676C39.5697 24.2151 39.2245 22.4797 38.5539 20.8605C37.8832 19.2414 36.9002 17.7702 35.6609 16.531C34.4217 15.2917 32.9505 14.3087 31.3314 13.6381C29.7122 12.9674 27.9769 12.6222 26.2243 12.6222Z" fill="#401735"/>
<path d="M33.9705 24.7146L33.9704 24.7147L33.9767 24.7181C34.3368 24.9182 34.7499 24.955 35.1171 24.8777C35.4821 24.8009 35.826 24.6059 36.0364 24.3113L36.0447 24.2998L36.0515 24.2874C36.4468 23.576 36.2178 22.6209 35.4907 22.2144C32.9791 20.7219 29.7536 19.915 26.57 19.6546C23.3843 19.394 20.2164 19.6787 17.8125 20.3897L17.8125 20.3896L17.8044 20.3923C17.0848 20.6321 16.6015 21.4303 16.8433 22.236L16.8431 22.236L16.8455 22.2432C17.0854 22.9628 17.8835 23.4461 18.6893 23.2043L18.6893 23.2043L18.6918 23.2036C20.689 22.5815 23.4582 22.3318 26.2628 22.5552C29.0682 22.7786 31.8794 23.473 33.9705 24.7146ZM19.3453 27.2778L19.3529 27.2759L19.3603 27.2735C23.4936 25.9614 28.8854 26.6189 32.4258 28.7789C33.0386 29.2097 33.7832 28.9205 34.1681 28.3816C34.3829 28.0809 34.422 27.7212 34.3499 27.4121C34.2798 27.1117 34.0961 26.8263 33.8199 26.6834C29.6213 24.1141 23.5494 23.3747 18.6174 24.8592C17.9203 25.0374 17.617 25.7991 17.7744 26.4286C17.9497 27.1301 18.714 27.4356 19.3453 27.2778ZM32.5712 32.045L32.5798 32.032L32.5868 32.0181C32.7102 31.7713 32.755 31.4777 32.6897 31.2057C32.624 30.932 32.4469 30.6855 32.1459 30.55C28.6073 28.3787 24.1372 27.9176 19.0299 29.06L19.0175 29.0628L19.0055 29.0668C18.5254 29.2268 18.0611 29.7347 18.2436 30.3735L18.2434 30.3736L18.2468 30.3839C18.4063 30.8623 18.9111 31.325 19.5467 31.1477C24.171 30.0919 28.0322 30.4961 31.0941 32.3838C31.3499 32.5529 31.6372 32.5999 31.9067 32.5325C32.1746 32.4655 32.4077 32.2902 32.5712 32.045ZM21.2129 13.869C22.8017 13.2109 24.5046 12.8722 26.2243 12.8722C27.944 12.8722 29.6469 13.2109 31.2357 13.869C32.8245 14.5271 34.2681 15.4917 35.4842 16.7077C36.7002 17.9238 37.6648 19.3674 38.3229 20.9562C38.981 22.545 39.3197 24.2479 39.3197 25.9676C39.3197 29.4407 37.94 32.7716 35.4842 35.2274C33.0283 37.6833 29.6974 39.063 26.2243 39.063C24.5046 39.063 22.8017 38.7243 21.2129 38.0662C19.6241 37.4081 18.1805 36.4435 16.9645 35.2274C14.5086 32.7716 13.1289 29.4407 13.1289 25.9676C13.1289 22.4945 14.5086 19.1636 16.9645 16.7077C18.1805 15.4917 19.6241 14.5271 21.2129 13.869Z" stroke="black" stroke-width="0.5"/>
</g>
<defs>
<filter id="filter0_d_2035_5" x="2.87891" y="6.62219" width="46.6908" height="46.6908" filterUnits="userSpaceOnUse" color-interpolation-filters="sRGB">
<feFlood flood-opacity="0" result="BackgroundImageFix"/>
<feColorMatrix in="SourceAlpha" type="matrix" values="0 0 0 0 0 0 0 0 0 0 0 0 0 0 0 0 0 0 127 0" result="hardAlpha"/>
<feOffset dy="4"/>
<feGaussianBlur stdDeviation="5"/>
<feComposite in2="hardAlpha" operator="out"/>
<feColorMatrix type="matrix" values="0 0 0 0 0 0 0 0 0 0 0 0 0 0 0 0 0 0 0.25 0"/>
<feBlend mode="normal" in2="BackgroundImageFix" result="effect1_dropShadow_2035_5"/>
<feBlend mode="normal" in="SourceGraphic" in2="effect1_dropShadow_2035_5" result="shape"/>
</filter>
</defs>
</svg>
