<svg width="52" height="52" viewBox="0 0 52 52" fill="none" xmlns="http://www.w3.org/2000/svg">
<circle cx="26.0365" cy="25.9676" r="25.0941" fill="white" stroke="white"/>
<g filter="url(#filter0_d_2035_8)">
<path d="M31.6244 18.4605C30.7941 17.5125 30.3365 16.2952 30.3369 15.035H26.5835V30.0972C26.5545 30.9123 26.2104 31.6843 25.6236 32.2508C25.0367 32.8172 24.253 33.1338 23.4374 33.1339C21.7125 33.1339 20.2792 31.7249 20.2792 29.9757C20.2792 27.8865 22.2956 26.3195 24.3727 26.9633V23.1249C20.182 22.5661 16.5137 25.8215 16.5137 29.9757C16.5137 34.0207 19.8662 36.8995 23.4253 36.8995C27.2394 36.8995 30.3369 33.802 30.3369 29.9757V22.3353C31.8589 23.4284 33.6862 24.0148 35.56 24.0116V20.2582C35.56 20.2582 33.2764 20.3675 31.6244 18.4605Z" fill="#401735"/>
<path d="M35.1571 20.4947C35.2131 20.4992 35.2643 20.5024 35.31 20.5047V23.7584C33.5764 23.7116 31.8944 23.1461 30.4827 22.1323L30.0869 21.848V22.3353V29.9757C30.0869 33.6642 27.101 36.6495 23.4253 36.6495C19.9933 36.6495 16.7637 33.8719 16.7637 29.9757C16.7637 26.0442 20.1735 22.9468 24.1227 23.3472V26.6403C21.9995 26.1943 20.0292 27.8314 20.0292 29.9757C20.0292 31.8642 21.5757 33.3839 23.4374 33.3839H23.4374C24.3178 33.3838 25.1638 33.0421 25.7972 32.4306C26.4306 31.8192 26.8021 30.9859 26.8333 30.1061L26.8335 30.1061V30.0972V15.285H30.0925C30.1487 16.5158 30.621 17.6941 31.4359 18.6246C32.3023 19.6246 33.3342 20.0953 34.1462 20.3158C34.5522 20.426 34.9048 20.4741 35.1571 20.4947Z" stroke="black" stroke-width="0.5"/>
</g>
<defs>
<filter id="filter0_d_2035_8" x="6.51367" y="9.03503" width="39.0464" height="41.8644" filterUnits="userSpaceOnUse" color-interpolation-filters="sRGB">
<feFlood flood-opacity="0" result="BackgroundImageFix"/>
<feColorMatrix in="SourceAlpha" type="matrix" values="0 0 0 0 0 0 0 0 0 0 0 0 0 0 0 0 0 0 127 0" result="hardAlpha"/>
<feOffset dy="4"/>
<feGaussianBlur stdDeviation="5"/>
<feComposite in2="hardAlpha" operator="out"/>
<feColorMatrix type="matrix" values="0 0 0 0 0 0 0 0 0 0 0 0 0 0 0 0 0 0 0.25 0"/>
<feBlend mode="normal" in2="BackgroundImageFix" result="effect1_dropShadow_2035_8"/>
<feBlend mode="normal" in="SourceGraphic" in2="effect1_dropShadow_2035_8" result="shape"/>
</filter>
</defs>
</svg>
