<svg width="52" height="52" viewBox="0 0 52 52" fill="none" xmlns="http://www.w3.org/2000/svg">
<circle cx="26.099" cy="25.9676" r="25.0941" fill="white" stroke="white"/>
<g filter="url(#filter0_d_2035_7)">
<path d="M37.8073 18.6917C36.9454 19.0835 36.0164 19.3409 35.0537 19.464C36.0388 18.8708 36.7999 17.9305 37.1581 16.8C36.2291 17.3597 35.1993 17.7514 34.1135 17.9753C33.2292 17.0127 31.9867 16.453 30.5764 16.453C27.9459 16.453 25.7968 18.6021 25.7968 21.255C25.7968 21.6356 25.8415 22.005 25.9199 22.352C21.935 22.1505 18.3867 20.2364 16.0249 17.3373C15.6107 18.0425 15.3756 18.8708 15.3756 19.7439C15.3756 21.4117 16.2152 22.8892 17.5136 23.7287C16.7189 23.7287 15.9801 23.5049 15.3309 23.1691V23.2027C15.3309 25.5309 16.9875 27.4786 19.1814 27.9151C18.4772 28.1087 17.7375 28.1355 17.0211 27.9935C17.3251 28.9477 17.9205 29.7826 18.7236 30.3809C19.5267 30.9793 20.4972 31.3108 21.4985 31.3291C19.8012 32.6729 17.6972 33.3992 15.5324 33.3887C15.1518 33.3887 14.7712 33.3663 14.3906 33.3215C16.5174 34.6871 19.0471 35.4819 21.7559 35.4819C30.5764 35.4819 35.4231 28.1614 35.4231 21.8147C35.4231 21.602 35.4231 21.4005 35.4119 21.1878C36.3522 20.5162 37.1581 19.6655 37.8073 18.6917Z" fill="#401735"/>
<path d="M17.4022 28.3044C17.7157 29.0473 18.2224 29.6958 18.873 30.1805C19.6342 30.7476 20.554 31.0618 21.503 31.0791L22.2009 31.0919L21.6536 31.5251C19.912 32.904 17.7531 33.6494 15.5317 33.6387C15.5315 33.6387 15.5313 33.6387 15.5311 33.6387L17.4022 28.3044ZM17.4022 28.3044C18.0199 28.3713 18.6461 28.3215 19.2477 28.1562L19.2302 27.6699C17.2682 27.2795 15.7586 25.6126 15.5955 23.5704" stroke="black" stroke-width="0.5"/>
</g>
<defs>
<filter id="filter0_d_2035_7" x="4.39062" y="10.453" width="43.4167" height="39.0289" filterUnits="userSpaceOnUse" color-interpolation-filters="sRGB">
<feFlood flood-opacity="0" result="BackgroundImageFix"/>
<feColorMatrix in="SourceAlpha" type="matrix" values="0 0 0 0 0 0 0 0 0 0 0 0 0 0 0 0 0 0 127 0" result="hardAlpha"/>
<feOffset dy="4"/>
<feGaussianBlur stdDeviation="5"/>
<feComposite in2="hardAlpha" operator="out"/>
<feColorMatrix type="matrix" values="0 0 0 0 0 0 0 0 0 0 0 0 0 0 0 0 0 0 0.25 0"/>
<feBlend mode="normal" in2="BackgroundImageFix" result="effect1_dropShadow_2035_7"/>
<feBlend mode="normal" in="SourceGraphic" in2="effect1_dropShadow_2035_7" result="shape"/>
</filter>
</defs>
</svg>
