<svg width="52" height="52" viewBox="0 0 52 52" fill="none" xmlns="http://www.w3.org/2000/svg">
<circle cx="26.2865" cy="25.9676" r="25.0941" fill="white" stroke="white"/>
<g filter="url(#filter0_d_2035_4)">
<path d="M23.5681 30.0451L30.6224 25.9675L23.5681 21.8899V30.0451ZM39.2806 19.4025C39.4573 20.0413 39.5796 20.8976 39.6612 21.985C39.7563 23.0724 39.7971 24.0102 39.7971 24.8258L39.8786 25.9675C39.8786 28.9442 39.6612 31.1325 39.2806 32.5325C38.9408 33.7558 38.1524 34.5441 36.9291 34.884C36.2903 35.0606 35.1214 35.183 33.3272 35.2645C31.5602 35.3597 29.9428 35.4005 28.4476 35.4005L26.2865 35.482C20.5914 35.482 17.0438 35.2645 15.6438 34.884C14.4205 34.5441 13.6322 33.7558 13.2924 32.5325C13.1157 31.8937 12.9934 31.0374 12.9118 29.95C12.8167 28.8626 12.7759 27.9248 12.7759 27.1092L12.6943 25.9675C12.6943 22.9908 12.9118 20.8025 13.2924 19.4025C13.6322 18.1792 14.4205 17.3909 15.6438 17.0511C16.2827 16.8744 17.4516 16.752 19.2458 16.6705C21.0127 16.5753 22.6302 16.5346 24.1253 16.5346L26.2865 16.453C31.9816 16.453 35.5291 16.6705 36.9291 17.0511C38.1524 17.3909 38.9408 18.1792 39.2806 19.4025Z" fill="#401735"/>
<path d="M23.3181 30.0451V30.4784L23.6932 30.2616L30.7475 26.1839L31.1219 25.9675L30.7475 25.7511L23.6932 21.6734L23.3181 21.4566V21.8899V30.0451ZM39.4119 22.0037L39.4118 22.0037L39.4121 22.0068C39.5067 23.088 39.5471 24.0185 39.5471 24.8258V24.8347L39.5477 24.8436L39.6286 25.9764C39.6282 28.9413 39.4108 31.1 39.0395 32.4663C38.7231 33.6046 38.0009 34.3267 36.8625 34.643C36.2547 34.8111 35.1131 34.9331 33.3159 35.0148L33.3138 35.0149C31.5512 35.1098 29.9382 35.1505 28.4476 35.1505V35.1503L28.4382 35.1506L26.2818 35.232C23.439 35.2319 21.1351 35.1776 19.3688 35.0761C17.5958 34.9742 16.3824 34.8256 15.7099 34.6429C14.5716 34.3264 13.8495 33.6041 13.5333 32.4656C13.363 31.85 13.2422 31.0126 13.1611 29.9313L13.1611 29.9313L13.1609 29.9282C13.0663 28.847 13.0259 27.9165 13.0259 27.1092V27.1003L13.0253 27.0914L12.9443 25.9586C12.9448 22.9938 13.1622 20.835 13.5335 19.4688C13.8499 18.3304 14.5721 17.6083 15.7106 17.292C16.3184 17.1239 17.46 17.0019 19.2571 16.9202L19.2571 16.9202L19.2592 16.9201C21.0218 16.8252 22.6348 16.7846 24.1253 16.7846V16.7847L24.1348 16.7844L26.2912 16.703C29.134 16.7031 31.4379 16.7574 33.2041 16.8589C34.977 16.9608 36.1904 17.1094 36.8628 17.2921C38.0012 17.6085 38.7233 18.3307 39.0396 19.4691C39.2099 20.0848 39.3307 20.9222 39.4119 22.0037Z" stroke="black" stroke-width="0.5"/>
</g>
<defs>
<filter id="filter0_d_2035_4" x="2.69434" y="10.453" width="47.1843" height="39.029" filterUnits="userSpaceOnUse" color-interpolation-filters="sRGB">
<feFlood flood-opacity="0" result="BackgroundImageFix"/>
<feColorMatrix in="SourceAlpha" type="matrix" values="0 0 0 0 0 0 0 0 0 0 0 0 0 0 0 0 0 0 127 0" result="hardAlpha"/>
<feOffset dy="4"/>
<feGaussianBlur stdDeviation="5"/>
<feComposite in2="hardAlpha" operator="out"/>
<feColorMatrix type="matrix" values="0 0 0 0 0 0 0 0 0 0 0 0 0 0 0 0 0 0 0.25 0"/>
<feBlend mode="normal" in2="BackgroundImageFix" result="effect1_dropShadow_2035_4"/>
<feBlend mode="normal" in="SourceGraphic" in2="effect1_dropShadow_2035_4" result="shape"/>
</filter>
</defs>
</svg>
