<svg width="376" height="397" viewBox="0 0 376 397" fill="none" xmlns="http://www.w3.org/2000/svg">
<path fill-rule="evenodd" clip-rule="evenodd" d="M12.4168 0H62.2236L71.4906 7.74565H305.014L314.062 0H363.583C366.611 0 369.515 1.36009 371.656 3.78107C373.797 6.20206 375 9.48563 375 12.9094V108.486L368.15 118.768V279.653L375 289.69V384.091C375 387.514 373.797 390.798 371.656 393.219C369.515 395.64 366.611 397 363.583 397H314.224L304.883 389.254H71.5146L62.3811 397H12.4168C9.38886 397 6.48492 395.64 4.34385 393.219C2.20279 390.798 1 387.514 1 384.091V290.013L7.85007 279.557V118.852L1 108.708V12.9094C1 9.48563 2.20279 6.20206 4.34385 3.78107C6.48492 1.36009 9.38886 0 12.4168 0Z" fill="#1FC1A9"/>
<path fill-rule="evenodd" clip-rule="evenodd" d="M11.3754 0H61.0017L67.9613 10.0414H308.543L315.283 0H364.625C367.642 0 370.535 1.3224 372.668 3.67631C374.801 6.03021 376 9.2228 376 12.5517V105.48L366.9 112.967V284.415L376 291.664V383.448C376 386.777 374.801 389.97 372.668 392.324C370.535 394.678 367.642 396 364.625 396H315.444L308.412 385.959H67.984L61.1587 396H11.3754C8.35846 396 5.46504 394.678 3.33174 392.324C1.19843 389.97 0 386.777 0 383.448V291.978L9.10033 284.321V113.048L0 105.696V12.5517C0 9.2228 1.19843 6.03021 3.33174 3.67631C5.46504 1.3224 8.35846 0 11.3754 0Z" fill="#011C18"/>
</svg>
